<?xml version="1.0" encoding="utf-8"?>
<!-- Generator: Adobe Illustrator 19.0.0, SVG Export Plug-In . SVG Version: 6.00 Build 0)  -->
<svg version="1.1" id="Layer_1" xmlns="http://www.w3.org/2000/svg" xmlns:xlink="http://www.w3.org/1999/xlink" x="0px" y="0px"
	 viewBox="0 0 420.1 290.4" style="enable-background:new 0 0 420.1 290.4;" xml:space="preserve">
<style type="text/css">
	.st0{fill:#2979FF;}
</style>
<g id="XMLID_17_">
	<path id="XMLID_15_" class="st0" d="M214.1,42.1H204c-2.9,0-5.3,2.4-5.3,5.3v10.1c0,2.9,2.4,5.3,5.3,5.3h10.1
		c2.9,0,5.3-2.4,5.3-5.3V47.3C219.4,44.4,217,42.1,214.1,42.1z"/>
	<path id="XMLID_14_" class="st0" d="M190.9,42.1h-10.1c-2.9,0-5.3,2.4-5.3,5.3v10.1c0,2.9,2.4,5.3,5.3,5.3h10.1
		c2.9,0,5.3-2.4,5.3-5.3V47.3C196.2,44.4,193.8,42.1,190.9,42.1z"/>
	<path id="XMLID_13_" class="st0" d="M237.3,42.1h-10.1c-2.9,0-5.3,2.4-5.3,5.3v10.1c0,2.9,2.4,5.3,5.3,5.3h10.1
		c2.9,0,5.3-2.4,5.3-5.3V47.3C242.6,44.4,240.2,42.1,237.3,42.1z"/>
	<path id="XMLID_12_" class="st0" d="M214.1,65.2H204c-2.9,0-5.3,2.4-5.3,5.3v10.1c0,2.9,2.4,5.3,5.3,5.3h10.1
		c2.9,0,5.3-2.4,5.3-5.3V70.5C219.4,67.6,217,65.2,214.1,65.2z"/>
	<path id="XMLID_11_" class="st0" d="M190.9,65.2h-10.1c-2.9,0-5.3,2.4-5.3,5.3v10.1c0,2.9,2.4,5.3,5.3,5.3h10.1
		c2.9,0,5.3-2.4,5.3-5.3V70.5C196.2,67.6,193.8,65.2,190.9,65.2z"/>
	<path id="XMLID_10_" class="st0" d="M237.3,65.2h-10.1c-2.9,0-5.3,2.4-5.3,5.3v10.1c0,2.9,2.4,5.3,5.3,5.3h10.1
		c2.9,0,5.3-2.4,5.3-5.3V70.5C242.6,67.6,240.2,65.2,237.3,65.2z"/>
	<path id="XMLID_9_" class="st0" d="M214.1,88.4H204c-2.9,0-5.3,2.4-5.3,5.3v10.1c0,2.9,2.4,5.3,5.3,5.3h10.1c2.9,0,5.3-2.4,5.3-5.3
		V93.7C219.4,90.8,217,88.4,214.1,88.4z"/>
	<path id="XMLID_8_" class="st0" d="M190.9,88.4h-10.1c-2.9,0-5.3,2.4-5.3,5.3v10.1c0,2.9,2.4,5.3,5.3,5.3h10.1
		c2.9,0,5.3-2.4,5.3-5.3V93.7C196.2,90.8,193.8,88.4,190.9,88.4z"/>
	<path id="XMLID_7_" class="st0" d="M237.3,88.4h-10.1c-2.9,0-5.3,2.4-5.3,5.3v10.1c0,2.9,2.4,5.3,5.3,5.3h10.1
		c2.9,0,5.3-2.4,5.3-5.3V93.7C242.6,90.8,240.2,88.4,237.3,88.4z"/>
	<g id="XMLID_18_">
		<circle id="XMLID_6_" class="st0" cx="209.1" cy="150.3" r="5.2"/>
		<path id="XMLID_19_" class="st0" d="M241.5,13.7h-65c-6.3,0-11.4,5.1-11.4,11.4v132c0,6.3,5.1,11.4,11.4,11.4h65
			c6.3,0,11.4-5.1,11.4-11.4V25C252.9,18.8,247.8,13.7,241.5,13.7z M216.8,21.4h2.6c1.4,0,2.6,1.2,2.6,2.6s-1.2,2.6-2.6,2.6h-2.6
			c-1.4,0-2.6-1.2-2.6-2.6S215.4,21.4,216.8,21.4z M198.7,21.4h10.3c1.4,0,2.6,1.2,2.6,2.6s-1.2,2.6-2.6,2.6h-10.3
			c-1.4,0-2.6-1.2-2.6-2.6S197.3,21.4,198.7,21.4z M209.1,160.7c-5.7,0-10.3-4.6-10.3-10.3s4.6-10.3,10.3-10.3s10.3,4.6,10.3,10.3
			S214.7,160.7,209.1,160.7z M247.7,132.3h-77.4v-98h77.4V132.3z"/>
	</g>
</g>
<g id="XMLID_16_">
	<path id="XMLID_132_" class="st0" d="M11.4,205.1h15.8c1.8,0,3.7,0.1,5.5,0.4c1.9,0.3,3.5,0.8,5,1.6c1.5,0.8,2.7,1.9,3.6,3.3
		c0.9,1.4,1.4,3.3,1.4,5.6c0,2.4-0.7,4.4-2,6c-1.3,1.6-3.1,2.7-5.3,3.4v0.1c1.4,0.2,2.7,0.6,3.8,1.2s2.1,1.3,2.9,2.2
		c0.8,0.9,1.4,1.9,1.9,3.1c0.4,1.2,0.7,2.5,0.7,3.8c0,2.2-0.5,4.1-1.4,5.6c-1,1.5-2.2,2.7-3.7,3.6c-1.5,0.9-3.2,1.6-5.1,2
		c-1.9,0.4-3.8,0.6-5.7,0.6H11.4V205.1z M20.7,222.1h6.8c0.7,0,1.4-0.1,2.1-0.2c0.7-0.2,1.3-0.4,1.9-0.8c0.6-0.4,1-0.8,1.4-1.4
		c0.3-0.6,0.5-1.3,0.5-2.2c0-0.9-0.2-1.6-0.6-2.2c-0.4-0.6-0.9-1-1.5-1.4c-0.6-0.3-1.3-0.5-2-0.7c-0.8-0.1-1.5-0.2-2.2-0.2h-6.4
		V222.1z M20.7,239.6h8.4c0.7,0,1.4-0.1,2.2-0.2c0.7-0.2,1.4-0.4,2-0.8c0.6-0.4,1.1-0.9,1.5-1.6c0.4-0.6,0.6-1.4,0.6-2.3
		c0-1-0.2-1.8-0.8-2.4c-0.5-0.6-1.1-1.1-1.9-1.4c-0.8-0.3-1.6-0.5-2.5-0.7c-0.9-0.1-1.7-0.2-2.5-0.2h-7.1V239.6z"/>
	<path id="XMLID_136_" class="st0" d="M51,233c0-2.3,0.4-4.4,1.3-6.3c0.8-1.9,2-3.5,3.5-4.8c1.5-1.3,3.2-2.4,5.2-3.1
		s4.1-1.1,6.3-1.1c2.2,0,4.4,0.4,6.3,1.1s3.7,1.8,5.2,3.1c1.5,1.3,2.6,3,3.5,4.8c0.8,1.9,1.3,4,1.3,6.3c0,2.3-0.4,4.4-1.3,6.3
		c-0.8,1.9-2,3.5-3.5,4.8c-1.5,1.3-3.2,2.4-5.2,3.1c-2,0.7-4.1,1.1-6.3,1.1c-2.2,0-4.3-0.4-6.3-1.1c-2-0.7-3.7-1.7-5.2-3.1
		c-1.5-1.3-2.6-2.9-3.5-4.8C51.4,237.4,51,235.3,51,233z M60,233c0,2.2,0.6,4,1.9,5.3c1.3,1.4,3,2,5.3,2c2.3,0,4.1-0.7,5.3-2
		c1.3-1.4,1.9-3.1,1.9-5.3c0-2.2-0.6-4-1.9-5.3c-1.3-1.4-3-2-5.3-2c-2.3,0-4,0.7-5.3,2C60.6,229,60,230.8,60,233z"/>
	<path id="XMLID_139_" class="st0" d="M91.7,218.4h9v4.7h0.1c1-1.8,2.1-3.2,3.4-4c1.3-0.9,3-1.4,5-1.4c0.5,0,1,0,1.6,0.1
		c0.5,0,1,0.1,1.4,0.2v8.2c-0.6-0.2-1.3-0.3-1.9-0.5c-0.6-0.1-1.3-0.2-2-0.2c-1.7,0-3.1,0.2-4.1,0.7c-1,0.5-1.8,1.2-2.3,2
		c-0.5,0.9-0.9,1.9-1.1,3.1c-0.2,1.2-0.2,2.5-0.2,4v12.2h-9V218.4z"/>
	<path id="XMLID_141_" class="st0" d="M120.2,218.4h8.6v4h0.1c0.3-0.6,0.7-1.1,1.2-1.7c0.5-0.6,1.1-1.1,1.9-1.5
		c0.7-0.4,1.5-0.8,2.5-1.1c0.9-0.3,1.9-0.4,3-0.4c2.3,0,4.1,0.4,5.5,1c1.4,0.7,2.5,1.7,3.3,2.9c0.8,1.2,1.3,2.7,1.6,4.4
		c0.3,1.7,0.4,3.5,0.4,5.5v16.1h-9v-14.3c0-0.8,0-1.7-0.1-2.6c-0.1-0.9-0.2-1.7-0.5-2.5c-0.3-0.8-0.8-1.4-1.4-1.9
		c-0.6-0.5-1.5-0.7-2.7-0.7c-1.2,0-2.1,0.2-2.8,0.6c-0.7,0.4-1.3,1-1.6,1.7c-0.4,0.7-0.6,1.5-0.8,2.4c-0.1,0.9-0.2,1.8-0.2,2.8v14.5
		h-9V218.4z"/>
	<path id="XMLID_143_" class="st0" d="M158.5,202.2h9v19.3h0.1c1-1.4,2.4-2.4,4-3c1.6-0.6,3.4-0.9,5.2-0.9c2.1,0,3.9,0.4,5.6,1.3
		c1.6,0.9,3,2,4.2,3.5c1.1,1.4,2,3.1,2.6,5c0.6,1.9,0.9,3.8,0.9,5.8c0,2.2-0.3,4.2-1,6.1c-0.7,1.8-1.6,3.4-2.9,4.8
		c-1.3,1.3-2.8,2.4-4.5,3.1c-1.8,0.7-3.7,1.1-5.9,1.1c-1,0-2-0.1-2.9-0.4c-0.9-0.3-1.8-0.6-2.5-1.1c-0.8-0.4-1.5-0.9-2-1.5
		c-0.6-0.5-1-1.1-1.4-1.6h-0.1v3.8h-8.3V202.2z M166.7,233c0,2.2,0.6,4,1.9,5.3c1.3,1.4,3,2,5.3,2s4-0.7,5.3-2
		c1.3-1.4,1.9-3.1,1.9-5.3c0-2.2-0.6-4-1.9-5.3c-1.3-1.4-3-2-5.3-2s-4,0.7-5.3,2C167.4,229,166.7,230.8,166.7,233z"/>
	<path id="XMLID_146_" class="st0" d="M207.4,202.2v20.2h0.1c0.2-0.6,0.5-1.1,1-1.7c0.5-0.6,1.1-1.1,1.7-1.5
		c0.7-0.4,1.5-0.8,2.4-1.1c0.9-0.3,1.9-0.4,3-0.4c2.3,0,4.1,0.4,5.5,1c1.4,0.7,2.5,1.7,3.3,2.9c0.8,1.2,1.3,2.7,1.6,4.4
		c0.3,1.7,0.4,3.5,0.4,5.5v16.1h-9v-14.3c0-0.8,0-1.7-0.1-2.6c-0.1-0.9-0.2-1.7-0.5-2.5c-0.3-0.8-0.8-1.4-1.4-1.9
		c-0.6-0.5-1.5-0.7-2.7-0.7c-1.2,0-2.1,0.2-2.8,0.6c-0.7,0.4-1.3,1-1.6,1.7c-0.4,0.7-0.6,1.5-0.8,2.4c-0.1,0.9-0.2,1.8-0.2,2.8v14.5
		h-9v-45.4H207.4z"/>
	<path id="XMLID_148_" class="st0" d="M263.9,247.6h-8.6v-4h-0.1c-0.3,0.6-0.7,1.1-1.2,1.7c-0.5,0.6-1.1,1.1-1.8,1.5
		c-0.7,0.4-1.5,0.8-2.5,1.1c-0.9,0.3-1.9,0.4-3,0.4c-2.3,0-4.1-0.4-5.6-1s-2.5-1.7-3.3-2.9c-0.8-1.2-1.3-2.7-1.6-4.4
		c-0.3-1.7-0.4-3.5-0.4-5.5v-16.1h9v14.3c0,0.8,0,1.7,0.1,2.6c0.1,0.9,0.2,1.7,0.5,2.5c0.3,0.8,0.8,1.4,1.4,1.9
		c0.6,0.5,1.5,0.7,2.7,0.7c1.2,0,2.1-0.2,2.8-0.6c0.7-0.4,1.3-1,1.7-1.7c0.4-0.7,0.6-1.5,0.8-2.4s0.2-1.8,0.2-2.8v-14.5h9V247.6z"/>
	<path id="XMLID_150_" class="st0" d="M273.3,202.2h9v27.7l10-11.5h11l-11.6,13.1l11.9,16h-11.3l-9.8-14.8h-0.1v14.8h-9V202.2z"/>
	<path id="XMLID_152_" class="st0" d="M309.7,202.2h9v27.7l10-11.5h11l-11.6,13.1l11.9,16h-11.3l-9.8-14.8h-0.1v14.8h-9V202.2z"/>
	<path id="XMLID_154_" class="st0" d="M364.3,243.9h-0.1c-1,1.6-2.3,2.7-4,3.4c-1.7,0.7-3.4,1-5.2,1c-1.4,0-2.7-0.2-3.9-0.6
		c-1.3-0.4-2.4-1-3.3-1.7s-1.7-1.7-2.3-2.8c-0.6-1.1-0.8-2.4-0.8-3.9c0-1.7,0.3-3.1,0.9-4.3c0.6-1.2,1.5-2.1,2.5-2.9
		c1.1-0.8,2.3-1.3,3.6-1.8c1.4-0.4,2.8-0.7,4.2-0.9c1.5-0.2,2.9-0.3,4.4-0.4s2.8-0.1,4.1-0.1c0-1.6-0.6-2.9-1.7-3.8
		c-1.1-0.9-2.5-1.4-4-1.4c-1.5,0-2.8,0.3-4,0.9c-1.2,0.6-2.3,1.5-3.3,2.6l-4.8-4.9c1.7-1.6,3.6-2.7,5.9-3.5c2.2-0.8,4.6-1.2,7-1.2
		c2.6,0,4.8,0.3,6.5,1c1.7,0.7,3.1,1.6,4.1,2.9c1,1.3,1.7,2.8,2.1,4.7c0.4,1.9,0.6,4,0.6,6.4v14.8h-8.3V243.9z M362.1,234.8
		c-0.7,0-1.5,0-2.5,0.1c-1,0.1-2,0.2-2.9,0.5c-0.9,0.3-1.7,0.7-2.4,1.3c-0.7,0.6-1,1.3-1,2.3c0,1.1,0.5,1.9,1.4,2.4s1.9,0.8,2.9,0.8
		c0.9,0,1.7-0.1,2.6-0.4c0.8-0.2,1.5-0.6,2.2-1c0.6-0.4,1.1-1,1.5-1.7c0.4-0.7,0.6-1.5,0.6-2.4v-1.9H362.1z"/>
	<path id="XMLID_157_" class="st0" d="M411.8,247.6h-8.3v-3.8h-0.1c-0.4,0.5-0.8,1-1.4,1.6s-1.3,1-2,1.5c-0.8,0.4-1.6,0.8-2.6,1.1
		c-0.9,0.3-1.9,0.4-2.9,0.4c-2.2,0-4.1-0.4-5.9-1.1c-1.8-0.7-3.3-1.8-4.5-3.1c-1.3-1.3-2.2-2.9-2.9-4.8c-0.7-1.8-1-3.9-1-6.1
		c0-2,0.3-4,0.9-5.8c0.6-1.9,1.5-3.5,2.6-5c1.1-1.4,2.5-2.6,4.2-3.5c1.6-0.9,3.5-1.3,5.6-1.3c1.9,0,3.6,0.3,5.2,0.9
		c1.6,0.6,2.9,1.6,4,3h0.1v-19.3h9V247.6z M403.6,233c0-2.2-0.6-4-1.9-5.3c-1.3-1.4-3-2-5.3-2s-4,0.7-5.3,2
		c-1.3,1.4-1.9,3.1-1.9,5.3c0,2.2,0.6,4,1.9,5.3c1.3,1.4,3,2,5.3,2s4-0.7,5.3-2C402.9,237,403.6,235.2,403.6,233z"/>
</g>
<g id="XMLID_20_">
	<path id="XMLID_104_" class="st0" d="M60.6,275.3h-2.3v-1.9h2.5l0.5-3.5h-2.3v-1.9h2.5l0.7-4.9h1.9l-0.7,4.9h2.8l0.7-4.9h1.9
		l-0.7,4.9h2.3v1.9h-2.5l-0.5,3.5h2.3v1.9h-2.5l-0.7,4.9h-1.9l0.7-4.9h-2.8l-0.7,4.9h-1.9L60.6,275.3z M63.2,270l-0.5,3.5h2.8
		L66,270H63.2z"/>
	<path id="XMLID_107_" class="st0" d="M73.3,263.2h5.9c0.7,0,1.4,0.1,2.1,0.3c0.6,0.2,1.2,0.4,1.6,0.8c0.5,0.3,0.8,0.8,1.1,1.3
		s0.4,1.2,0.4,1.9c0,1-0.3,1.8-0.8,2.4c-0.5,0.6-1.2,1.1-2.1,1.4v0c0.5,0,1,0.2,1.4,0.4c0.4,0.2,0.8,0.5,1.2,0.9s0.6,0.8,0.8,1.3
		s0.3,1,0.3,1.6c0,0.8-0.2,1.4-0.5,2s-0.7,1.1-1.3,1.5c-0.5,0.4-1.2,0.7-1.9,0.9c-0.7,0.2-1.5,0.3-2.3,0.3h-5.8V263.2z M75.6,270.2
		h3.1c0.4,0,0.8,0,1.2-0.1c0.4-0.1,0.7-0.2,1-0.4c0.3-0.2,0.5-0.5,0.7-0.8s0.3-0.7,0.3-1.2c0-0.7-0.2-1.3-0.6-1.8
		c-0.4-0.5-1.1-0.7-2-0.7h-3.6V270.2z M75.6,278.2h3.4c0.4,0,0.7,0,1.2-0.1c0.4-0.1,0.8-0.2,1.2-0.4c0.4-0.2,0.7-0.5,0.9-0.9
		c0.3-0.4,0.4-0.9,0.4-1.5c0-1-0.3-1.8-1-2.3c-0.7-0.5-1.5-0.8-2.7-0.8h-3.4V278.2z"/>
	<path id="XMLID_111_" class="st0" d="M87.8,262H90v8.5h0c0.3-0.6,0.7-1.1,1.4-1.5c0.7-0.4,1.4-0.6,2.3-0.6c0.5,0,1.1,0.1,1.6,0.3
		c0.5,0.2,0.9,0.4,1.3,0.8c0.4,0.4,0.7,0.8,0.9,1.4c0.2,0.6,0.3,1.2,0.3,2v7.3h-2.2v-6.7c0-0.5-0.1-1-0.2-1.4s-0.3-0.7-0.6-0.9
		c-0.2-0.2-0.5-0.4-0.8-0.5c-0.3-0.1-0.6-0.2-1-0.2c-0.4,0-0.9,0.1-1.2,0.2c-0.4,0.1-0.7,0.4-1,0.7c-0.3,0.3-0.5,0.7-0.7,1.2
		c-0.2,0.5-0.2,1-0.2,1.7v5.9h-2.2V262z"/>
	<path id="XMLID_113_" class="st0" d="M100.6,274.5c0-0.8,0.2-1.6,0.5-2.3c0.3-0.7,0.7-1.4,1.3-1.9s1.2-1,1.9-1.3
		c0.7-0.3,1.5-0.5,2.4-0.5s1.6,0.2,2.4,0.5c0.7,0.3,1.4,0.7,1.9,1.3s1,1.2,1.3,1.9c0.3,0.7,0.5,1.5,0.5,2.3c0,0.8-0.2,1.6-0.5,2.3
		c-0.3,0.7-0.7,1.4-1.3,1.9s-1.2,1-1.9,1.3c-0.7,0.3-1.5,0.5-2.4,0.5s-1.6-0.2-2.4-0.5c-0.7-0.3-1.4-0.7-1.9-1.3s-1-1.2-1.3-1.9
		C100.8,276.1,100.6,275.3,100.6,274.5z M102.9,274.5c0,0.6,0.1,1.1,0.3,1.6c0.2,0.5,0.4,0.9,0.7,1.2c0.3,0.3,0.7,0.6,1.2,0.8
		c0.5,0.2,1,0.3,1.6,0.3s1.1-0.1,1.6-0.3c0.5-0.2,0.9-0.5,1.2-0.8c0.3-0.3,0.6-0.8,0.7-1.2c0.2-0.5,0.3-1,0.3-1.6
		c0-0.6-0.1-1.1-0.3-1.6c-0.2-0.5-0.4-0.9-0.7-1.2c-0.3-0.3-0.7-0.6-1.2-0.8c-0.5-0.2-1-0.3-1.6-0.3s-1.1,0.1-1.6,0.3
		c-0.5,0.2-0.9,0.5-1.2,0.8c-0.3,0.3-0.6,0.8-0.7,1.2C103,273.4,102.9,273.9,102.9,274.5z"/>
	<path id="XMLID_116_" class="st0" d="M114.9,274.5c0-0.8,0.2-1.6,0.5-2.3c0.3-0.7,0.7-1.4,1.3-1.9s1.2-1,1.9-1.3
		c0.7-0.3,1.5-0.5,2.4-0.5s1.6,0.2,2.4,0.5c0.7,0.3,1.4,0.7,1.9,1.3s1,1.2,1.3,1.9c0.3,0.7,0.5,1.5,0.5,2.3c0,0.8-0.2,1.6-0.5,2.3
		c-0.3,0.7-0.7,1.4-1.3,1.9s-1.2,1-1.9,1.3c-0.7,0.3-1.5,0.5-2.4,0.5s-1.6-0.2-2.4-0.5c-0.7-0.3-1.4-0.7-1.9-1.3s-1-1.2-1.3-1.9
		C115,276.1,114.9,275.3,114.9,274.5z M117.2,274.5c0,0.6,0.1,1.1,0.3,1.6c0.2,0.5,0.4,0.9,0.7,1.2c0.3,0.3,0.7,0.6,1.2,0.8
		c0.5,0.2,1,0.3,1.6,0.3s1.1-0.1,1.6-0.3c0.5-0.2,0.9-0.5,1.2-0.8c0.3-0.3,0.6-0.8,0.7-1.2c0.2-0.5,0.3-1,0.3-1.6
		c0-0.6-0.1-1.1-0.3-1.6c-0.2-0.5-0.4-0.9-0.7-1.2c-0.3-0.3-0.7-0.6-1.2-0.8c-0.5-0.2-1-0.3-1.6-0.3s-1.1,0.1-1.6,0.3
		c-0.5,0.2-0.9,0.5-1.2,0.8c-0.3,0.3-0.6,0.8-0.7,1.2C117.3,273.4,117.2,273.9,117.2,274.5z"/>
	<path id="XMLID_119_" class="st0" d="M129.7,262h2.2v11.7l4.9-4.9h3l-5.3,5.2l5.8,6.2h-3.1l-5.3-5.9v5.9h-2.2V262z"/>
	<path id="XMLID_121_" class="st0" d="M142.7,263.2h2.3V278h7.8v2.2h-10.1V263.2z"/>
	<path id="XMLID_123_" class="st0" d="M154.6,270.2c0.6-0.6,1.3-1,2.1-1.3c0.8-0.3,1.6-0.4,2.4-0.4c0.8,0,1.5,0.1,2.1,0.3
		c0.6,0.2,1.1,0.5,1.5,0.8c0.4,0.4,0.7,0.8,0.9,1.2c0.2,0.5,0.3,0.9,0.3,1.4v5.8c0,0.4,0,0.8,0,1.1s0,0.7,0.1,1h-1.9
		c0-0.6-0.1-1.2-0.1-1.7h0c-0.5,0.7-1,1.3-1.7,1.6c-0.7,0.3-1.4,0.5-2.3,0.5c-0.5,0-1-0.1-1.5-0.2c-0.5-0.1-0.9-0.4-1.3-0.6
		c-0.4-0.3-0.6-0.6-0.9-1.1c-0.2-0.4-0.3-0.9-0.3-1.5c0-0.7,0.2-1.4,0.5-1.8s0.8-0.9,1.3-1.2c0.6-0.3,1.2-0.5,2-0.7
		c0.8-0.1,1.6-0.2,2.4-0.2h1.6v-0.5c0-0.3-0.1-0.6-0.2-0.9s-0.3-0.5-0.5-0.8c-0.2-0.2-0.5-0.4-0.8-0.6c-0.3-0.1-0.7-0.2-1.2-0.2
		c-0.4,0-0.8,0-1.1,0.1c-0.3,0.1-0.6,0.2-0.9,0.3c-0.3,0.1-0.5,0.3-0.7,0.4c-0.2,0.2-0.4,0.3-0.6,0.5L154.6,270.2z M160.7,274.7
		c-0.5,0-1,0-1.6,0.1c-0.5,0.1-1,0.2-1.5,0.3c-0.4,0.2-0.8,0.4-1.1,0.7c-0.3,0.3-0.4,0.7-0.4,1.1c0,0.7,0.2,1.1,0.7,1.4
		s1,0.4,1.8,0.4c0.6,0,1.1-0.1,1.5-0.3c0.4-0.2,0.8-0.5,1-0.8c0.3-0.3,0.4-0.7,0.6-1.1c0.1-0.4,0.2-0.8,0.2-1.2v-0.7H160.7z"/>
	<path id="XMLID_126_" class="st0" d="M178.4,280.1c0,0.9-0.1,1.7-0.4,2.4s-0.7,1.3-1.3,1.8c-0.5,0.5-1.2,0.9-2,1.2
		s-1.6,0.4-2.5,0.4c-1.1,0-2.1-0.2-3-0.5c-0.9-0.3-1.8-0.8-2.6-1.6l1.5-1.8c0.6,0.6,1.2,1.1,1.8,1.4c0.7,0.3,1.4,0.5,2.2,0.5
		c0.8,0,1.5-0.1,2-0.3c0.5-0.2,0.9-0.5,1.3-0.9s0.5-0.8,0.7-1.3c0.1-0.5,0.2-0.9,0.2-1.4v-1.7h-0.1c-0.4,0.7-1,1.2-1.7,1.5
		s-1.5,0.5-2.2,0.5c-0.8,0-1.6-0.1-2.3-0.4s-1.3-0.7-1.8-1.2c-0.5-0.5-0.9-1.1-1.2-1.8c-0.3-0.7-0.4-1.5-0.4-2.3
		c0-0.8,0.1-1.6,0.4-2.3c0.3-0.7,0.7-1.4,1.2-1.9s1.1-1,1.8-1.3c0.7-0.3,1.5-0.5,2.4-0.5c0.8,0,1.5,0.2,2.2,0.5s1.3,0.8,1.7,1.4h0
		v-1.6h2.2V280.1z M172.5,270.5c-0.6,0-1.1,0.1-1.6,0.3c-0.5,0.2-0.9,0.5-1.2,0.8c-0.3,0.3-0.6,0.8-0.7,1.2c-0.2,0.5-0.3,1-0.3,1.6
		c0,1.2,0.3,2.1,1,2.8s1.6,1,2.7,1s2.1-0.3,2.7-1c0.7-0.7,1-1.6,1-2.8c0-0.6-0.1-1.1-0.3-1.6c-0.2-0.5-0.4-0.9-0.7-1.2
		c-0.3-0.3-0.7-0.6-1.2-0.8C173.6,270.6,173.1,270.5,172.5,270.5z"/>
	<path id="XMLID_129_" class="st0" d="M181.4,264.7c0-0.4,0.2-0.8,0.5-1.1c0.3-0.3,0.7-0.5,1.1-0.5c0.4,0,0.8,0.2,1.1,0.5
		c0.3,0.3,0.5,0.7,0.5,1.1s-0.2,0.8-0.5,1.1c-0.3,0.3-0.7,0.5-1.1,0.5c-0.4,0-0.8-0.2-1.1-0.5C181.5,265.5,181.4,265.2,181.4,264.7z
		 M181.9,268.8h2.2v11.4h-2.2V268.8z"/>
</g>
<g id="XMLID_74_">
	<path id="XMLID_75_" class="st0" d="M245.8,275.3h-2.3v-1.9h2.5l0.5-3.5h-2.3v-1.9h2.5l0.7-4.9h1.9l-0.7,4.9h2.8l0.7-4.9h1.9
		l-0.7,4.9h2.3v1.9h-2.5l-0.5,3.5h2.3v1.9h-2.5l-0.7,4.9h-1.9l0.7-4.9h-2.8l-0.7,4.9h-1.9L245.8,275.3z M248.4,270l-0.5,3.5h2.8
		l0.5-3.5H248.4z"/>
	<path id="XMLID_78_" class="st0" d="M266.2,280.6c-1.3,0-2.5-0.2-3.6-0.7s-2-1.1-2.8-1.9c-0.8-0.8-1.4-1.7-1.8-2.8
		s-0.7-2.3-0.7-3.5c0-1.3,0.2-2.4,0.7-3.5c0.4-1.1,1-2,1.8-2.8c0.8-0.8,1.7-1.4,2.8-1.9s2.3-0.7,3.6-0.7s2.5,0.2,3.6,0.7
		c1.1,0.5,2,1.1,2.8,1.9c0.8,0.8,1.4,1.7,1.8,2.8c0.4,1.1,0.7,2.3,0.7,3.5c0,1.3-0.2,2.4-0.7,3.5c-0.4,1.1-1,2-1.8,2.8
		c-0.8,0.8-1.7,1.4-2.8,1.9C268.7,280.4,267.5,280.6,266.2,280.6z M266.2,278.5c1,0,1.9-0.2,2.6-0.5c0.8-0.4,1.5-0.8,2-1.5
		c0.6-0.6,1-1.3,1.3-2.1c0.3-0.8,0.5-1.7,0.5-2.6s-0.2-1.8-0.5-2.6c-0.3-0.8-0.7-1.5-1.3-2.1c-0.6-0.6-1.2-1.1-2-1.5
		c-0.8-0.4-1.7-0.5-2.6-0.5c-1,0-1.9,0.2-2.6,0.5c-0.8,0.4-1.5,0.8-2,1.5c-0.6,0.6-1,1.3-1.3,2.1s-0.5,1.7-0.5,2.6s0.2,1.8,0.5,2.6
		c0.3,0.8,0.7,1.5,1.3,2.1c0.6,0.6,1.2,1.1,2,1.5C264.4,278.3,265.2,278.5,266.2,278.5z"/>
	<path id="XMLID_81_" class="st0" d="M277.8,268.8h2.2v1.8h0c0.1-0.3,0.3-0.6,0.6-0.8c0.2-0.2,0.5-0.5,0.8-0.6s0.6-0.3,1-0.4
		c0.4-0.1,0.7-0.2,1.1-0.2c0.4,0,0.7,0,1,0.1l-0.1,2.3c-0.2,0-0.4-0.1-0.5-0.1c-0.2,0-0.4,0-0.5,0c-1.1,0-1.9,0.3-2.4,0.9
		c-0.6,0.6-0.8,1.5-0.8,2.8v5.7h-2.2V268.8z"/>
	<path id="XMLID_83_" class="st0" d="M297.7,280.2h-2.2v-1.6h0c-0.4,0.6-1,1.1-1.7,1.4c-0.7,0.3-1.5,0.5-2.2,0.5
		c-0.9,0-1.7-0.2-2.4-0.5s-1.3-0.7-1.8-1.3c-0.5-0.5-0.9-1.2-1.2-1.9c-0.3-0.7-0.4-1.5-0.4-2.4c0-0.8,0.1-1.6,0.4-2.4
		c0.3-0.7,0.7-1.4,1.2-1.9c0.5-0.5,1.1-1,1.8-1.3s1.5-0.5,2.4-0.5c0.8,0,1.6,0.2,2.3,0.5c0.7,0.3,1.3,0.8,1.7,1.4h0V262h2.2V280.2z
		 M291.8,278.5c0.6,0,1.1-0.1,1.6-0.3c0.5-0.2,0.9-0.5,1.2-0.8c0.3-0.3,0.6-0.8,0.7-1.2s0.3-1,0.3-1.6c0-0.6-0.1-1.1-0.3-1.6
		c-0.2-0.5-0.4-0.9-0.7-1.2c-0.3-0.3-0.7-0.6-1.2-0.8s-1-0.3-1.6-0.3s-1.1,0.1-1.6,0.3s-0.9,0.5-1.2,0.8c-0.3,0.3-0.6,0.8-0.7,1.2
		c-0.2,0.5-0.3,1-0.3,1.6c0,0.6,0.1,1.1,0.3,1.6s0.4,0.9,0.7,1.2s0.7,0.6,1.2,0.8C290.7,278.4,291.2,278.5,291.8,278.5z"/>
	<path id="XMLID_86_" class="st0" d="M302.6,275.3c0,0.5,0.1,0.9,0.3,1.4c0.2,0.4,0.5,0.8,0.9,1c0.4,0.3,0.8,0.5,1.2,0.7
		c0.5,0.2,0.9,0.2,1.4,0.2c0.7,0,1.3-0.2,1.8-0.5c0.5-0.3,1-0.7,1.4-1.2l1.6,1.2c-1.2,1.6-2.9,2.3-5,2.3c-0.9,0-1.7-0.2-2.4-0.5
		c-0.7-0.3-1.3-0.7-1.8-1.3s-0.9-1.2-1.2-1.9c-0.3-0.7-0.4-1.5-0.4-2.4c0-0.8,0.1-1.6,0.4-2.4c0.3-0.7,0.7-1.4,1.2-1.9
		c0.5-0.5,1.1-1,1.9-1.3s1.5-0.5,2.4-0.5c1,0,1.9,0.2,2.6,0.5c0.7,0.4,1.3,0.8,1.7,1.4c0.4,0.6,0.8,1.2,1,1.9s0.3,1.4,0.3,2.2v0.8
		H302.6z M309.4,273.6c0-0.5-0.1-0.9-0.2-1.3c-0.1-0.4-0.3-0.7-0.6-1c-0.3-0.3-0.6-0.5-1-0.7c-0.4-0.2-0.9-0.3-1.4-0.3
		c-0.5,0-1,0.1-1.5,0.3c-0.4,0.2-0.8,0.5-1.1,0.8c-0.3,0.3-0.5,0.7-0.7,1.1c-0.2,0.4-0.3,0.8-0.3,1.2H309.4z"/>
	<path id="XMLID_89_" class="st0" d="M314.3,268.8h2.2v1.8h0c0.1-0.3,0.3-0.6,0.6-0.8c0.2-0.2,0.5-0.5,0.8-0.6s0.6-0.3,1-0.4
		c0.4-0.1,0.7-0.2,1.1-0.2c0.4,0,0.7,0,1,0.1l-0.1,2.3c-0.2,0-0.4-0.1-0.5-0.1c-0.2,0-0.4,0-0.5,0c-1.1,0-1.9,0.3-2.4,0.9
		c-0.6,0.6-0.8,1.5-0.8,2.8v5.7h-2.2V268.8z"/>
	<path id="XMLID_91_" class="st0" d="M329,263.2h2.3v12.1c0,1.1-0.2,1.9-0.5,2.6s-0.8,1.2-1.3,1.6c-0.5,0.4-1,0.7-1.6,0.8
		c-0.6,0.2-1.1,0.2-1.6,0.2c-1.2,0-2.2-0.3-3-0.9c-0.8-0.6-1.3-1.5-1.6-2.8l2.3-0.5c0.1,0.6,0.4,1.1,0.8,1.5
		c0.4,0.4,0.9,0.6,1.6,0.6c0.6,0,1-0.1,1.4-0.3c0.3-0.2,0.6-0.5,0.8-0.9c0.2-0.4,0.3-0.8,0.4-1.2c0.1-0.5,0.1-0.9,0.1-1.4V263.2z"/>
	<path id="XMLID_93_" class="st0" d="M334.8,270.2c0.6-0.6,1.3-1,2.1-1.3c0.8-0.3,1.6-0.4,2.4-0.4c0.8,0,1.5,0.1,2.1,0.3
		c0.6,0.2,1.1,0.5,1.5,0.8s0.7,0.8,0.9,1.2s0.3,0.9,0.3,1.4v5.8c0,0.4,0,0.8,0,1.1c0,0.3,0,0.7,0.1,1h-1.9c0-0.6-0.1-1.2-0.1-1.7h0
		c-0.5,0.7-1,1.3-1.7,1.6s-1.4,0.5-2.3,0.5c-0.5,0-1-0.1-1.5-0.2c-0.5-0.1-0.9-0.4-1.3-0.6s-0.6-0.6-0.9-1.1
		c-0.2-0.4-0.3-0.9-0.3-1.5c0-0.7,0.2-1.4,0.5-1.8s0.8-0.9,1.3-1.2c0.6-0.3,1.2-0.5,2-0.7s1.6-0.2,2.4-0.2h1.6v-0.5
		c0-0.3-0.1-0.6-0.2-0.9c-0.1-0.3-0.3-0.5-0.5-0.8c-0.2-0.2-0.5-0.4-0.8-0.6c-0.3-0.1-0.7-0.2-1.2-0.2c-0.4,0-0.8,0-1.1,0.1
		c-0.3,0.1-0.6,0.2-0.9,0.3c-0.3,0.1-0.5,0.3-0.7,0.4s-0.4,0.3-0.6,0.5L334.8,270.2z M340.9,274.7c-0.5,0-1,0-1.6,0.1
		c-0.5,0.1-1,0.2-1.5,0.3c-0.4,0.2-0.8,0.4-1.1,0.7s-0.4,0.7-0.4,1.1c0,0.7,0.2,1.1,0.7,1.4c0.4,0.3,1,0.4,1.8,0.4
		c0.6,0,1.1-0.1,1.5-0.3c0.4-0.2,0.8-0.5,1-0.8c0.3-0.3,0.4-0.7,0.6-1.1c0.1-0.4,0.2-0.8,0.2-1.2v-0.7H340.9z"/>
	<path id="XMLID_96_" class="st0" d="M347.4,262h2.2v18.1h-2.2V262z"/>
	<path id="XMLID_98_" class="st0" d="M364.4,280.2h-2.2v-1.6h0c-0.4,0.6-1,1.1-1.7,1.4c-0.7,0.3-1.5,0.5-2.2,0.5
		c-0.9,0-1.7-0.2-2.4-0.5c-0.7-0.3-1.3-0.7-1.8-1.3c-0.5-0.5-0.9-1.2-1.2-1.9c-0.3-0.7-0.4-1.5-0.4-2.4c0-0.8,0.1-1.6,0.4-2.4
		c0.3-0.7,0.7-1.4,1.2-1.9c0.5-0.5,1.1-1,1.8-1.3c0.7-0.3,1.5-0.5,2.4-0.5c0.8,0,1.6,0.2,2.3,0.5c0.7,0.3,1.3,0.8,1.7,1.4h0V262h2.2
		V280.2z M358.4,278.5c0.6,0,1.1-0.1,1.6-0.3c0.5-0.2,0.9-0.5,1.2-0.8s0.6-0.8,0.7-1.2c0.2-0.5,0.3-1,0.3-1.6c0-0.6-0.1-1.1-0.3-1.6
		c-0.2-0.5-0.4-0.9-0.7-1.2c-0.3-0.3-0.7-0.6-1.2-0.8c-0.5-0.2-1-0.3-1.6-0.3s-1.1,0.1-1.6,0.3c-0.5,0.2-0.9,0.5-1.2,0.8
		c-0.3,0.3-0.6,0.8-0.7,1.2c-0.2,0.5-0.3,1-0.3,1.6c0,0.6,0.1,1.1,0.3,1.6c0.2,0.5,0.4,0.9,0.7,1.2c0.3,0.3,0.7,0.6,1.2,0.8
		C357.4,278.4,357.9,278.5,358.4,278.5z"/>
	<path id="XMLID_101_" class="st0" d="M367.3,264.7c0-0.4,0.2-0.8,0.5-1.1c0.3-0.3,0.7-0.5,1.1-0.5s0.8,0.2,1.1,0.5
		c0.3,0.3,0.5,0.7,0.5,1.1s-0.2,0.8-0.5,1.1c-0.3,0.3-0.7,0.5-1.1,0.5s-0.8-0.2-1.1-0.5C367.4,265.5,367.3,265.2,367.3,264.7z
		 M367.8,268.8h2.2v11.4h-2.2V268.8z"/>
</g>
</svg>
